<?xml version="1.0" encoding="utf-8"?>
<!-- Generator: Adobe Illustrator 23.0.3, SVG Export Plug-In . SVG Version: 6.00 Build 0)  -->
<svg version="1.1" id="Layer_1" xmlns="http://www.w3.org/2000/svg" xmlns:xlink="http://www.w3.org/1999/xlink" x="0px" y="0px"
	 viewBox="0 0 592.2 149.57" style="enable-background:new 0 0 592.2 149.57;" xml:space="preserve">
<style type="text/css">
	.st0{fill:#FFFFFF;}
</style>
<g>
	<path class="st0" d="M31.44,98.32V10.43H13.86v87.89c0,26.37,13.18,39.55,39.55,39.55h61.52v-17.58H53.41
		C38.77,120.29,31.44,112.97,31.44,98.32z"/>
	<path class="st0" d="M53.41,93.93v-83.5H35.84v87.89c0,11.72,5.86,17.58,17.58,17.58h61.52V98.32H57.81
		C54.88,98.32,53.41,96.86,53.41,93.93z"/>
	<path class="st0" d="M141.31,98.32V10.43h-17.58v87.89c0,26.37,13.18,39.55,39.55,39.55h61.52v-17.58h-61.52
		C148.63,120.29,141.31,112.97,141.31,98.32z"/>
	<path class="st0" d="M163.28,93.93v-83.5H145.7v87.89c0,11.72,5.86,17.58,17.58,17.58h61.52V98.32h-57.13
		C164.74,98.32,163.28,96.86,163.28,93.93z"/>
	<path class="st0" d="M290.72,10.43h-17.58c-26.37,0-39.55,13.18-39.55,39.55v48.34c0,26.37,13.18,39.55,39.55,39.55h17.58
		c26.37,0,39.55-13.18,39.55-39.55V49.98C330.27,23.61,317.09,10.43,290.72,10.43z M312.69,98.32c0,14.65-7.32,21.97-21.97,21.97
		h-17.58c-14.65,0-21.97-7.32-21.97-21.97V49.98c0-14.65,7.32-21.97,21.97-21.97h17.58c14.65,0,21.97,7.32,21.97,21.97V98.32z"/>
	<path class="st0" d="M290.72,32.4h-17.58c-11.72,0-17.58,5.86-17.58,17.58v48.34c0,11.72,5.86,17.58,17.58,17.58h17.58
		c11.72,0,17.58-5.86,17.58-17.58V49.98C308.3,38.26,302.44,32.4,290.72,32.4z M290.72,93.93c0,2.93-1.46,4.39-4.39,4.39h-8.79
		c-2.93,0-4.39-1.46-4.39-4.39V54.38c0-2.93,1.46-4.39,4.39-4.39h8.79c2.93,0,4.39,1.46,4.39,4.39V93.93z"/>
	<path class="st0" d="M377.88,28.01h52l-35.16,89.36c-0.98,1.96-2.93,2.93-5.86,2.93c-2.44,0-4.39-0.97-5.86-2.93L343.45,10.43
		h-17.58l41.02,112.79c4.88,9.77,12.21,14.65,21.97,14.65c11.23,0,18.55-4.88,21.97-14.65l42.48-112.79h-75.44V28.01z"/>
	<path class="st0" d="M388.86,115.9c1.46,0,2.44-0.98,2.93-2.93l30.76-80.57h-44.68v9.52l-12.45-31.49h-17.58l38.09,102.54
		C386.42,114.92,387.4,115.9,388.86,115.9z M396.92,49.98l-8.06,20.51l-8.06-20.51H396.92z"/>
	<path class="st0" d="M547.07,25.08c-3.42-9.76-10.74-14.65-21.97-14.65c-9.77,0-17.09,4.88-21.97,14.65l-41.02,112.79h17.58
		l39.55-106.93c1.46-1.95,3.42-2.93,5.86-2.93c2.93,0,4.88,0.98,5.86,2.93l35.16,89.36h-52v17.58h75.44L547.07,25.08z"/>
	<path class="st0" d="M514.11,115.9h44.68l-30.76-80.57c-0.49-1.95-1.46-2.93-2.93-2.93s-2.44,0.98-2.93,2.93l-38.09,102.54h17.58
		l12.45-31.49V115.9z M525.09,77.81l8.06,20.51h-16.11L525.09,77.81z"/>
</g>
</svg>
